<svg width="33" height="36" viewBox="0 0 33 36" fill="none" xmlns="http://www.w3.org/2000/svg">
<g id="&#240;&#159;&#166;&#134; icon &#34;notification major&#34;">
<path id="Vector" d="M16.4987 0C17.0679 0 17.6138 0.188765 18.0163 0.524769C18.4188 0.860774 18.6449 1.31649 18.6449 1.79167V5.43236L18.6428 5.46998L18.6385 5.52373C21.6402 5.94672 24.3655 7.24351 26.331 9.18412C28.2965 11.1247 29.3752 13.5837 29.3759 16.1251C29.3759 21.6667 30.7172 23.8508 32.8076 27.2514L32.8806 27.3732C33.2454 27.9645 32.7303 28.6668 31.932 28.6668H1.06554C0.883146 28.6669 0.703768 28.628 0.544609 28.5536C0.38545 28.4792 0.251848 28.372 0.156618 28.2421C0.0613882 28.1123 0.0077241 27.9641 0.000773385 27.812C-0.00617733 27.6598 0.0338185 27.5087 0.116924 27.3732L0.189895 27.2514C2.28028 23.8508 3.62164 21.6667 3.62164 16.1251C3.62178 13.5834 4.70029 11.124 6.66584 9.18302C8.63139 7.24203 11.3569 5.94498 14.359 5.52194L14.3547 5.45028C14.3532 5.42521 14.3525 5.40012 14.3526 5.37502V1.79167C14.3526 1.31649 14.5787 0.860774 14.9812 0.524769C15.3837 0.188765 15.9295 0 16.4987 0ZM20.7911 32.2501C20.7911 33.2005 20.3389 34.1119 19.5339 34.784C18.7289 35.456 17.6372 35.8335 16.4987 35.8335C15.3603 35.8335 14.2686 35.456 13.4636 34.784C12.6586 34.1119 12.2064 33.2005 12.2064 32.2501H20.7911Z" fill="black"/>
</g>
</svg>
