<svg width="46" height="36" viewBox="0 0 46 36" fill="none" xmlns="http://www.w3.org/2000/svg">
<g id="&#240;&#159;&#166;&#134; icon &#34;hint major&#34;">
<path id="Vector" d="M23 0C23.61 0 24.195 0.189642 24.6263 0.527208C25.0577 0.864773 25.3 1.32261 25.3 1.8V3.6C25.3 4.07739 25.0577 4.53523 24.6263 4.87279C24.195 5.21036 23.61 5.4 23 5.4C22.39 5.4 21.805 5.21036 21.3737 4.87279C20.9423 4.53523 20.7 4.07739 20.7 3.6V1.8C20.7 1.32261 20.9423 0.864773 21.3737 0.527208C21.805 0.189642 22.39 0 23 0ZM27.6 30.6V33.3C27.6 34.0161 27.2365 34.7028 26.5895 35.2092C25.9425 35.7155 25.065 36 24.15 36H21.85C20.935 36 20.0575 35.7155 19.4105 35.2092C18.7635 34.7028 18.4 34.0161 18.4 33.3V30.6H27.6ZM41.4 16.2C40.79 16.2 40.205 16.3896 39.7737 16.7272C39.3423 17.0648 39.1 17.5226 39.1 18C39.1 18.4774 39.3423 18.9352 39.7737 19.2728C40.205 19.6104 40.79 19.8 41.4 19.8H43.7C44.31 19.8 44.895 19.6104 45.3263 19.2728C45.7577 18.9352 46 18.4774 46 18C46 17.5226 45.7577 17.0648 45.3263 16.7272C44.895 16.3896 44.31 16.2 43.7 16.2H41.4ZM0 18C0 17.5226 0.242321 17.0648 0.673654 16.7272C1.10499 16.3896 1.69 16.2 2.3 16.2H4.6C5.21 16.2 5.79501 16.3896 6.22635 16.7272C6.65768 17.0648 6.9 17.5226 6.9 18C6.9 18.4774 6.65768 18.9352 6.22635 19.2728C5.79501 19.6104 5.21 19.8 4.6 19.8H2.3C1.69 19.8 1.10499 19.6104 0.673654 19.2728C0.242321 18.9352 0 18.4774 0 18ZM9.9889 5.2722C9.55316 4.95242 8.97555 4.77786 8.37828 4.78545C7.78101 4.79304 7.21094 4.98219 6.7887 5.31287C6.36646 5.64355 6.12518 6.08982 6.1159 6.55726C6.10662 7.02469 6.33008 7.47661 6.739 7.8174L8.3651 9.09C8.57607 9.26582 8.83004 9.40667 9.11192 9.50417C9.39381 9.60167 9.69785 9.65385 10.006 9.65759C10.3142 9.66134 10.6201 9.61658 10.9057 9.52597C11.1914 9.43537 11.4508 9.30076 11.6686 9.13015C11.8865 8.95954 12.0583 8.75641 12.1739 8.53282C12.2894 8.30923 12.3464 8.06974 12.3414 7.82859C12.3364 7.58743 12.2695 7.34951 12.1447 7.12898C12.02 6.90844 11.8398 6.70978 11.615 6.5448L9.9889 5.2722ZM34.385 9.09C33.9538 8.75245 33.7116 8.2947 33.7116 7.8174C33.7116 7.3401 33.9538 6.88235 34.385 6.5448L36.0111 5.2722C36.2233 5.10028 36.4771 4.96315 36.7577 4.86882C37.0383 4.77448 37.3401 4.72483 37.6455 4.72275C37.9509 4.72067 38.2537 4.76622 38.5364 4.85672C38.8191 4.94723 39.0759 5.08088 39.2918 5.24989C39.5078 5.4189 39.6785 5.61987 39.7942 5.84108C39.9098 6.0623 39.968 6.29932 39.9654 6.53832C39.9627 6.77732 39.8993 7.01352 39.7787 7.23313C39.6582 7.45274 39.483 7.65136 39.2633 7.8174L37.6372 9.09C37.2059 9.42745 36.621 9.61702 36.0111 9.61702C35.4012 9.61702 34.8163 9.42745 34.385 9.09ZM30.5164 20.3526C29.095 21.9258 27.6 23.6232 27.6 25.551V27H18.4V25.551C18.4 23.625 16.905 21.9258 15.4836 20.3526C14.5114 19.2746 13.9364 18.0083 13.8214 16.6919C13.7064 15.3755 14.0559 14.0597 14.8316 12.8882C15.6073 11.7167 16.7794 10.7345 18.2199 10.0489C19.6605 9.36339 21.314 9.00081 23 9.00081C24.686 9.00081 26.3395 9.36339 27.7801 10.0489C29.2206 10.7345 30.3927 11.7167 31.1684 12.8882C31.9441 14.0597 32.2936 15.3755 32.1786 16.6919C32.0636 18.0083 31.4886 19.2746 30.5164 20.3526Z" fill="black"/>
</g>
</svg>
