<svg width="34" height="36" viewBox="0 0 34 36" fill="none" xmlns="http://www.w3.org/2000/svg">
<g id="&#240;&#159;&#166;&#134; icon &#34;customers minor&#34;">
<path id="Vector" d="M17 15.3572C19.2542 15.3572 21.416 14.5482 23.0099 13.1082C24.6039 11.6682 25.4993 9.7151 25.4993 7.67861C25.4993 5.64211 24.6039 3.68903 23.0099 2.24901C21.416 0.808994 19.2542 0 17 0C14.7458 0 12.584 0.808994 10.9901 2.24901C9.39613 3.68903 8.50066 5.64211 8.50066 7.67861C8.50066 9.7151 9.39613 11.6682 10.9901 13.1082C12.584 14.5482 14.7458 15.3572 17 15.3572ZM7.08411 35.8335C5.68307 35.8337 4.31343 35.4586 3.14843 34.7555C1.98343 34.0524 1.07541 33.0529 0.539223 31.8835C0.00303475 30.7142 -0.137231 29.4274 0.136169 28.186C0.409569 26.9446 1.08435 25.8043 2.07516 24.9094C3.7467 23.4325 9.06728 20.4763 17 20.4763C24.9327 20.4763 30.2533 23.4325 31.9248 24.9094C32.9156 25.8043 33.5904 26.9446 33.8638 28.186C34.1372 29.4274 33.997 30.7142 33.4608 31.8835C32.9246 33.0529 32.0166 34.0524 30.8516 34.7555C29.6866 35.4586 28.3169 35.8337 26.9159 35.8335H7.08411Z" fill="black"/>
</g>
</svg>
