<svg width="39" height="36" viewBox="0 0 39 36" fill="none" xmlns="http://www.w3.org/2000/svg">
<g id="&#240;&#159;&#166;&#134; icon &#34;chat major&#34;">
<path id="Vector" fill-rule="evenodd" clip-rule="evenodd" d="M19.5 0C8.7477 0 0 8.07475 0 17.9999C0 21.1103 0.8775 24.1559 2.5428 26.863L0.19695 32.3368C-0.69615 34.513 1.61265 36.6442 3.9702 35.818L9.8982 33.6508C12.8236 35.1901 16.1327 35.9996 19.5 35.9998C30.2523 35.9998 39 27.925 39 17.9999C39 8.07475 30.2523 0 19.5 0ZM10.3214 16.7273C10.502 16.5596 10.7168 16.4265 10.9534 16.3356C11.19 16.2448 11.4438 16.198 11.7 16.198C11.9562 16.198 12.21 16.2448 12.4466 16.3356C12.6832 16.4265 12.898 16.5596 13.0786 16.7273C13.2604 16.8941 13.4046 17.0924 13.503 17.3108C13.6014 17.5292 13.652 17.7634 13.652 17.9999C13.652 18.2364 13.6014 18.4706 13.503 18.689C13.4046 18.9074 13.2604 19.1057 13.0786 19.2725C12.898 19.4402 12.6832 19.5733 12.4466 19.6642C12.21 19.755 11.9562 19.8018 11.7 19.8018C11.4438 19.8018 11.19 19.755 10.9534 19.6642C10.7168 19.5733 10.502 19.4402 10.3214 19.2725C10.1396 19.1057 9.99544 18.9074 9.89704 18.689C9.79864 18.4706 9.74798 18.2364 9.74798 17.9999C9.74798 17.7634 9.79864 17.5292 9.89704 17.3108C9.99544 17.0924 10.1396 16.8941 10.3214 16.7273ZM18.1214 16.7273C18.302 16.5596 18.5168 16.4265 18.7534 16.3356C18.99 16.2448 19.2438 16.198 19.5 16.198C19.7562 16.198 20.01 16.2448 20.2466 16.3356C20.4832 16.4265 20.698 16.5596 20.8787 16.7273C21.0604 16.8941 21.2046 17.0924 21.303 17.3108C21.4014 17.5292 21.452 17.7634 21.452 17.9999C21.452 18.2364 21.4014 18.4706 21.303 18.689C21.2046 18.9074 21.0604 19.1057 20.8787 19.2725C20.5122 19.6086 20.0166 19.7973 19.5 19.7973C18.9834 19.7973 18.4878 19.6086 18.1214 19.2725C17.7572 18.9342 17.5528 18.4768 17.5528 17.9999C17.5528 17.523 17.7572 17.0656 18.1214 16.7273ZM27.3 16.1999C27.0437 16.1992 26.7898 16.2453 26.5529 16.3355C26.3159 16.4257 26.1006 16.5582 25.9194 16.7255C25.7382 16.8928 25.5946 17.0915 25.4969 17.3102C25.3991 17.5289 25.3492 17.7633 25.35 17.9999C25.3492 18.2365 25.3991 18.4709 25.4969 18.6896C25.5946 18.9083 25.7382 19.107 25.9194 19.2743C26.1006 19.4416 26.3159 19.5741 26.5529 19.6643C26.7898 19.7545 27.0437 19.8006 27.3 19.7999C27.5563 19.8006 27.8102 19.7545 28.0471 19.6643C28.2841 19.5741 28.4994 19.4416 28.6806 19.2743C28.8618 19.107 29.0054 18.9083 29.1031 18.6896C29.2009 18.4709 29.2508 18.2365 29.25 17.9999C29.2508 17.7633 29.2009 17.5289 29.1031 17.3102C29.0054 17.0915 28.8618 16.8928 28.6806 16.7255C28.4994 16.5582 28.2841 16.4257 28.0471 16.3355C27.8102 16.2453 27.5563 16.1992 27.3 16.1999Z" fill="black"/>
</g>
</svg>
